<svg width="410" height="410" viewBox="0 0 410 410" fill="none" xmlns="http://www.w3.org/2000/svg">
<path d="M0 15C0 6.71574 6.71573 0 15 0H395C403.284 0 410 6.71573 410 15V395C410 403.284 403.284 410 395 410H15C6.71574 410 0 403.284 0 395V15Z" fill="black"/>
<path d="M389.385 38.1406C388.545 38.1406 387.826 37.9785 387.229 37.6543C386.635 37.3301 386.18 36.875 385.863 36.2891C385.551 35.6992 385.395 35.0137 385.395 34.2324C385.395 33.4355 385.557 32.7441 385.881 32.1582C386.205 31.5684 386.658 31.1113 387.24 30.7871C387.822 30.4629 388.498 30.3008 389.268 30.3008C389.709 30.3008 390.123 30.3809 390.51 30.541C390.896 30.6973 391.238 30.9473 391.535 31.291L391.658 30.4473H392.332V32.75H391.652C391.602 32.207 391.371 31.7734 390.961 31.4492C390.555 31.125 390.02 30.9629 389.355 30.9629C388.785 30.9629 388.289 31.0957 387.867 31.3613C387.445 31.623 387.119 31.998 386.889 32.4863C386.658 32.9707 386.543 33.5449 386.543 34.209C386.543 34.8809 386.658 35.4609 386.889 35.9492C387.119 36.4375 387.445 36.8125 387.867 37.0742C388.289 37.3359 388.785 37.4668 389.355 37.4668C390.16 37.4668 390.77 37.3262 391.184 37.0449C391.598 36.7637 391.809 36.2402 391.816 35.4746L392.496 35.5918L392.438 37.1094C391.965 37.5117 391.475 37.7852 390.967 37.9297C390.459 38.0703 389.932 38.1406 389.385 38.1406Z" fill="white"/>
<path d="M382.359 38.0586L378.328 31.4141C378.324 31.4141 378.32 31.4141 378.316 31.4141V36.9746C378.316 37.1934 378.365 37.3223 378.463 37.3613C378.561 37.4004 378.76 37.4199 379.061 37.4199H379.377V38C379.166 38 378.965 37.998 378.773 37.9941C378.582 37.9902 378.338 37.9883 378.041 37.9883C377.725 37.9883 377.447 37.9902 377.209 37.9941C376.975 37.998 376.734 38 376.488 38V37.4199H376.863C377.086 37.4199 377.242 37.4043 377.332 37.373C377.422 37.3418 377.475 37.291 377.49 37.2207C377.51 37.1504 377.52 37.0566 377.52 36.9395V31.502C377.52 31.2676 377.48 31.1289 377.402 31.0859C377.328 31.043 377.154 31.0215 376.881 31.0215H376.518C376.518 30.9863 376.518 30.9434 376.518 30.8926C376.518 30.8418 376.518 30.7891 376.518 30.7344C376.521 30.6758 376.523 30.6211 376.523 30.5703C376.523 30.5195 376.523 30.4766 376.523 30.4414C376.523 30.4414 376.572 30.4414 376.67 30.4414C376.768 30.4414 376.883 30.4414 377.016 30.4414C377.152 30.4414 377.279 30.4434 377.396 30.4473C377.518 30.4473 377.598 30.4473 377.637 30.4473C377.715 30.4473 377.803 30.4473 377.9 30.4473C377.998 30.4473 378.1 30.4473 378.205 30.4473C378.311 30.4434 378.412 30.4414 378.51 30.4414C378.611 30.4414 378.703 30.4414 378.785 30.4414C378.785 30.4414 378.855 30.5586 378.996 30.793C379.137 31.0273 379.324 31.3359 379.559 31.7188C379.793 32.1016 380.049 32.5234 380.326 32.9844C380.604 33.4453 380.881 33.9062 381.158 34.3672C381.436 34.8242 381.691 35.2441 381.926 35.627C382.16 36.0098 382.348 36.3184 382.488 36.5527C382.629 36.7871 382.699 36.9043 382.699 36.9043V31.4434C382.695 31.2402 382.645 31.1191 382.547 31.0801C382.449 31.041 382.254 31.0215 381.961 31.0215H381.656V30.4414C381.965 30.4414 382.225 30.4453 382.436 30.4531C382.646 30.457 382.838 30.459 383.01 30.459C383.053 30.459 383.15 30.459 383.303 30.459C383.459 30.4551 383.629 30.4531 383.812 30.4531C383.996 30.4492 384.154 30.4473 384.287 30.4473C384.42 30.4434 384.486 30.4414 384.486 30.4414V31.0215H384.117C383.809 31.0215 383.627 31.0566 383.572 31.127C383.521 31.1934 383.496 31.2949 383.496 31.4316C383.496 31.4277 383.496 31.5449 383.496 31.7832C383.496 32.0215 383.496 32.3379 383.496 32.7324C383.496 33.127 383.496 33.5605 383.496 34.0332C383.496 34.502 383.496 34.9727 383.496 35.4453C383.496 35.918 383.496 36.3516 383.496 36.7461C383.496 37.1406 383.496 37.459 383.496 37.7012C383.496 37.9395 383.496 38.0586 383.496 38.0586H382.359Z" fill="white"/>
<path d="M372.82 38V37.4199H373.102C373.34 37.4199 373.508 37.4023 373.605 37.3672C373.707 37.332 373.768 37.2832 373.787 37.2207C373.807 37.1582 373.816 37.0879 373.816 37.0098V31.4727C373.816 31.3555 373.805 31.2656 373.781 31.2031C373.762 31.1367 373.701 31.0898 373.6 31.0625C373.502 31.0352 373.336 31.0215 373.102 31.0215H372.82V30.4414C373.004 30.4453 373.164 30.4492 373.301 30.4531C373.441 30.457 373.578 30.459 373.711 30.459C374.172 30.459 374.539 30.459 374.812 30.459C375.086 30.4551 375.303 30.4512 375.463 30.4473C375.623 30.4434 375.764 30.4414 375.885 30.4414V31.0215H375.598C375.363 31.0215 375.195 31.0391 375.094 31.0742C374.996 31.1094 374.936 31.1582 374.912 31.2207C374.893 31.2793 374.883 31.3496 374.883 31.4316V37.0508C374.883 37.1484 374.893 37.2246 374.912 37.2793C374.932 37.3301 374.99 37.3672 375.088 37.3906C375.189 37.4102 375.359 37.4199 375.598 37.4199H375.885V38C375.643 38 375.41 37.998 375.188 37.9941C374.969 37.9902 374.688 37.9883 374.344 37.9883C374.031 37.9883 373.756 37.9902 373.518 37.9941C373.283 37.998 373.051 38 372.82 38Z" fill="white"/>
<path d="M390.645 24.0586L386.613 17.4141C386.609 17.4141 386.605 17.4141 386.602 17.4141V22.9746C386.602 23.1934 386.65 23.3223 386.748 23.3613C386.846 23.4004 387.045 23.4199 387.346 23.4199H387.662V24C387.451 24 387.25 23.998 387.059 23.9941C386.867 23.9902 386.623 23.9883 386.326 23.9883C386.01 23.9883 385.732 23.9902 385.494 23.9941C385.26 23.998 385.02 24 384.773 24V23.4199H385.148C385.371 23.4199 385.527 23.4043 385.617 23.373C385.707 23.3418 385.76 23.291 385.775 23.2207C385.795 23.1504 385.805 23.0566 385.805 22.9395V17.502C385.805 17.2676 385.766 17.1289 385.688 17.0859C385.613 17.043 385.439 17.0215 385.166 17.0215H384.803C384.803 16.9863 384.803 16.9434 384.803 16.8926C384.803 16.8418 384.803 16.7891 384.803 16.7344C384.807 16.6758 384.809 16.6211 384.809 16.5703C384.809 16.5195 384.809 16.4766 384.809 16.4414C384.809 16.4414 384.857 16.4414 384.955 16.4414C385.053 16.4414 385.168 16.4414 385.301 16.4414C385.438 16.4414 385.564 16.4434 385.682 16.4473C385.803 16.4473 385.883 16.4473 385.922 16.4473C386 16.4473 386.088 16.4473 386.186 16.4473C386.283 16.4473 386.385 16.4473 386.49 16.4473C386.596 16.4434 386.697 16.4414 386.795 16.4414C386.896 16.4414 386.988 16.4414 387.07 16.4414C387.07 16.4414 387.141 16.5586 387.281 16.793C387.422 17.0273 387.609 17.3359 387.844 17.7188C388.078 18.1016 388.334 18.5234 388.611 18.9844C388.889 19.4453 389.166 19.9062 389.443 20.3672C389.721 20.8242 389.977 21.2441 390.211 21.627C390.445 22.0098 390.633 22.3184 390.773 22.5527C390.914 22.7871 390.984 22.9043 390.984 22.9043V17.4434C390.98 17.2402 390.93 17.1191 390.832 17.0801C390.734 17.041 390.539 17.0215 390.246 17.0215H389.941V16.4414C390.25 16.4414 390.51 16.4453 390.721 16.4531C390.932 16.457 391.123 16.459 391.295 16.459C391.338 16.459 391.436 16.459 391.588 16.459C391.744 16.4551 391.914 16.4531 392.098 16.4531C392.281 16.4492 392.439 16.4473 392.572 16.4473C392.705 16.4434 392.771 16.4414 392.771 16.4414V17.0215H392.402C392.094 17.0215 391.912 17.0566 391.857 17.127C391.807 17.1934 391.781 17.2949 391.781 17.4316C391.781 17.4277 391.781 17.5449 391.781 17.7832C391.781 18.0215 391.781 18.3379 391.781 18.7324C391.781 19.127 391.781 19.5605 391.781 20.0332C391.781 20.502 391.781 20.9727 391.781 21.4453C391.781 21.918 391.781 22.3516 391.781 22.7461C391.781 23.1406 391.781 23.459 391.781 23.7012C391.781 23.9395 391.781 24.0586 391.781 24.0586H390.645Z" fill="white"/>
<path d="M380.121 24.1406C379.316 24.1406 378.621 23.9785 378.035 23.6543C377.449 23.3262 376.998 22.8691 376.682 22.2832C376.369 21.6934 376.213 21.0039 376.213 20.2148C376.213 19.4336 376.369 18.75 376.682 18.1641C376.998 17.5742 377.445 17.1152 378.023 16.7871C378.602 16.459 379.287 16.2949 380.08 16.2949C380.869 16.2949 381.553 16.459 382.131 16.7871C382.709 17.1152 383.156 17.5742 383.473 18.1641C383.789 18.75 383.947 19.4336 383.947 20.2148C383.947 20.9922 383.789 21.6758 383.473 22.2656C383.16 22.8516 382.717 23.3105 382.143 23.6426C381.572 23.9746 380.898 24.1406 380.121 24.1406ZM380.074 23.4609C380.914 23.4609 381.576 23.1699 382.061 22.5879C382.545 22.002 382.787 21.2109 382.787 20.2148C382.787 19.207 382.545 18.4121 382.061 17.8301C381.576 17.248 380.914 16.957 380.074 16.957C379.23 16.957 378.566 17.25 378.082 17.8359C377.602 18.4219 377.361 19.2129 377.361 20.209C377.361 21.209 377.604 22.002 378.088 22.5879C378.576 23.1699 379.238 23.4609 380.074 23.4609Z" fill="white"/>
<path d="M372.152 24V23.4199H372.434C372.672 23.4199 372.84 23.4023 372.938 23.3672C373.039 23.332 373.1 23.2832 373.119 23.2207C373.139 23.1582 373.148 23.0879 373.148 23.0098V17.4727C373.148 17.3555 373.137 17.2656 373.113 17.2031C373.094 17.1367 373.033 17.0898 372.932 17.0625C372.834 17.0352 372.668 17.0215 372.434 17.0215H372.152V16.4414C372.336 16.4453 372.496 16.4492 372.633 16.4531C372.773 16.457 372.91 16.459 373.043 16.459C373.504 16.459 373.871 16.459 374.145 16.459C374.418 16.4551 374.635 16.4512 374.795 16.4473C374.955 16.4434 375.096 16.4414 375.217 16.4414V17.0215H374.93C374.695 17.0215 374.527 17.0391 374.426 17.0742C374.328 17.1094 374.268 17.1582 374.244 17.2207C374.225 17.2793 374.215 17.3496 374.215 17.4316V23.0508C374.215 23.1484 374.225 23.2246 374.244 23.2793C374.264 23.3301 374.322 23.3672 374.42 23.3906C374.521 23.4102 374.691 23.4199 374.93 23.4199H375.217V24C374.975 24 374.742 23.998 374.52 23.9941C374.301 23.9902 374.02 23.9883 373.676 23.9883C373.363 23.9883 373.088 23.9902 372.85 23.9941C372.615 23.998 372.383 24 372.152 24Z" fill="white"/>
<path d="M366.451 24V23.4199H366.773C367.02 23.4199 367.193 23.4023 367.295 23.3672C367.396 23.3281 367.457 23.2773 367.477 23.2148C367.496 23.1523 367.506 23.0859 367.506 23.0156V17.1094H366.234C365.941 17.1094 365.732 17.1211 365.607 17.1445C365.482 17.168 365.404 17.2031 365.373 17.25C365.346 17.2969 365.332 17.3574 365.332 17.4316C365.332 17.5488 365.332 17.6836 365.332 17.8359C365.336 17.9844 365.338 18.1348 365.338 18.2871C365.338 18.4395 365.338 18.5781 365.338 18.7031H364.723V16.4414C364.723 16.4414 364.818 16.4434 365.01 16.4473C365.201 16.4473 365.434 16.4492 365.707 16.4531C365.98 16.4531 366.244 16.4531 366.498 16.4531C366.752 16.4531 366.941 16.4531 367.066 16.4531H369.328C369.508 16.4531 369.721 16.4531 369.967 16.4531C370.213 16.4492 370.457 16.4473 370.699 16.4473C370.945 16.4434 371.156 16.4414 371.332 16.4414V18.7031H370.711V17.4961C370.711 17.3867 370.695 17.3047 370.664 17.25C370.637 17.1953 370.557 17.1582 370.424 17.1387C370.291 17.1191 370.068 17.1094 369.756 17.1094H368.572V23.0801C368.572 23.166 368.582 23.2344 368.602 23.2852C368.625 23.332 368.688 23.3672 368.789 23.3906C368.891 23.4102 369.061 23.4199 369.299 23.4199H369.627V24C369.4 24 369.174 24 368.947 24C368.725 23.9961 368.449 23.9922 368.121 23.9883C368.098 23.9883 368.018 23.9902 367.881 23.9941C367.748 23.9941 367.59 23.9941 367.406 23.9941C367.227 23.9941 367.049 23.9961 366.873 24C366.697 24 366.557 24 366.451 24Z" fill="white"/>
<path d="M356.502 24V23.4199C356.764 23.416 356.953 23.4082 357.07 23.3965C357.191 23.3848 357.275 23.3496 357.322 23.291C357.373 23.2324 357.424 23.1348 357.475 22.998C357.482 22.9824 357.527 22.8672 357.609 22.6523C357.691 22.4336 357.799 22.1523 357.932 21.8086C358.064 21.4609 358.209 21.082 358.365 20.6719C358.521 20.2617 358.678 19.8535 358.834 19.4473C358.994 19.0371 359.139 18.6602 359.268 18.3164C359.4 17.9688 359.508 17.6875 359.59 17.4727C359.676 17.2539 359.721 17.1367 359.725 17.1211L359.959 16.4414H361.312C361.312 16.4414 361.354 16.5527 361.436 16.7754C361.521 16.998 361.633 17.293 361.77 17.6602C361.91 18.0234 362.064 18.4258 362.232 18.8672C362.4 19.3047 362.568 19.7441 362.736 20.1855C362.908 20.627 363.064 21.0352 363.205 21.4102C363.346 21.7812 363.461 22.084 363.551 22.3184C363.641 22.5488 363.688 22.6699 363.691 22.6816C363.762 22.8652 363.82 23.0078 363.867 23.1094C363.914 23.2109 363.969 23.2852 364.031 23.332C364.094 23.375 364.184 23.4023 364.301 23.4141C364.418 23.4219 364.582 23.4258 364.793 23.4258V24C364.578 24 364.361 23.998 364.143 23.9941C363.928 23.9902 363.705 23.9883 363.475 23.9883C363.225 23.9883 362.982 23.9883 362.748 23.9883C362.514 23.9883 362.223 23.9922 361.875 24V23.4375C361.965 23.4375 362.045 23.4375 362.115 23.4375C362.186 23.4375 362.25 23.4355 362.309 23.4316C362.484 23.4277 362.602 23.416 362.66 23.3965C362.723 23.373 362.754 23.334 362.754 23.2793C362.754 23.2598 362.75 23.2344 362.742 23.2031C362.734 23.168 362.725 23.1309 362.713 23.0918L362.092 21.2285H359.027C359.023 21.2363 359 21.3027 358.957 21.4277C358.914 21.5527 358.861 21.7051 358.799 21.8848C358.736 22.0645 358.672 22.2461 358.605 22.4297C358.543 22.6094 358.49 22.7617 358.447 22.8867C358.404 23.0078 358.383 23.0703 358.383 23.0742C358.344 23.1719 358.324 23.2422 358.324 23.2852C358.324 23.3594 358.363 23.4043 358.441 23.4199C358.523 23.4355 358.658 23.4434 358.846 23.4434C358.904 23.4434 358.969 23.4434 359.039 23.4434C359.109 23.4434 359.186 23.4434 359.268 23.4434V24C359.053 24 358.834 23.998 358.611 23.9941C358.393 23.9902 358.174 23.9883 357.955 23.9883C357.717 23.9883 357.494 23.9883 357.287 23.9883C357.08 23.9883 356.818 23.9922 356.502 24ZM359.25 20.6367H361.875L360.562 16.9922L359.25 20.6367Z" fill="white"/>
<path d="M352.758 24.0762L350.221 17.7129C350.135 17.498 350.061 17.3438 349.998 17.25C349.936 17.1523 349.846 17.0898 349.729 17.0625C349.615 17.0352 349.438 17.0215 349.195 17.0215V16.4414C349.289 16.4453 349.389 16.4492 349.494 16.4531C349.604 16.457 349.711 16.4609 349.816 16.4648C349.926 16.4648 350.027 16.4648 350.121 16.4648C350.238 16.4648 350.402 16.4648 350.613 16.4648C350.828 16.4609 351.047 16.457 351.27 16.4531C351.496 16.4492 351.688 16.4473 351.844 16.4473C352 16.4434 352.078 16.4414 352.078 16.4414V17.0215C351.77 17.0215 351.539 17.0332 351.387 17.0566C351.234 17.0762 351.158 17.1543 351.158 17.291C351.158 17.377 351.186 17.4883 351.24 17.625C351.244 17.6328 351.283 17.7363 351.357 17.9355C351.436 18.1348 351.537 18.3965 351.662 18.7207C351.791 19.0449 351.93 19.4004 352.078 19.7871C352.23 20.1699 352.381 20.5547 352.529 20.9414C352.678 21.3242 352.814 21.6777 352.939 22.002C353.068 22.3223 353.17 22.582 353.244 22.7812C353.322 22.9805 353.363 23.084 353.367 23.0918L355.365 17.6426C355.4 17.5449 355.428 17.4629 355.447 17.3965C355.471 17.3301 355.482 17.2734 355.482 17.2266C355.482 17.1328 355.436 17.0762 355.342 17.0566C355.248 17.0332 355.094 17.0215 354.879 17.0215C354.828 17.0215 354.771 17.0215 354.709 17.0215C354.646 17.0215 354.582 17.0215 354.516 17.0215V16.4414C354.516 16.4414 354.57 16.4434 354.68 16.4473C354.793 16.4473 354.928 16.4492 355.084 16.4531C355.244 16.4531 355.396 16.4551 355.541 16.459C355.689 16.459 355.797 16.459 355.863 16.459C356.078 16.459 356.301 16.457 356.531 16.4531C356.762 16.4492 356.992 16.4453 357.223 16.4414V17.0215C357.023 17.0215 356.865 17.0352 356.748 17.0625C356.631 17.0859 356.529 17.1465 356.443 17.2441C356.361 17.3418 356.275 17.5 356.186 17.7188C356.096 17.9336 355.98 18.2324 355.84 18.6152L353.801 24.0762H352.758Z" fill="white"/>
<path d="M345.832 24V23.4199H346.113C346.352 23.4199 346.52 23.4023 346.617 23.3672C346.719 23.332 346.779 23.2832 346.799 23.2207C346.818 23.1582 346.828 23.0879 346.828 23.0098V17.4727C346.828 17.3555 346.816 17.2656 346.793 17.2031C346.773 17.1367 346.713 17.0898 346.611 17.0625C346.514 17.0352 346.348 17.0215 346.113 17.0215H345.832V16.4414C346.016 16.4453 346.176 16.4492 346.312 16.4531C346.453 16.457 346.59 16.459 346.723 16.459C347.184 16.459 347.551 16.459 347.824 16.459C348.098 16.4551 348.314 16.4512 348.475 16.4473C348.635 16.4434 348.775 16.4414 348.896 16.4414V17.0215H348.609C348.375 17.0215 348.207 17.0391 348.105 17.0742C348.008 17.1094 347.947 17.1582 347.924 17.2207C347.904 17.2793 347.895 17.3496 347.895 17.4316V23.0508C347.895 23.1484 347.904 23.2246 347.924 23.2793C347.943 23.3301 348.002 23.3672 348.1 23.3906C348.201 23.4102 348.371 23.4199 348.609 23.4199H348.896V24C348.654 24 348.422 23.998 348.199 23.9941C347.98 23.9902 347.699 23.9883 347.355 23.9883C347.043 23.9883 346.768 23.9902 346.529 23.9941C346.295 23.998 346.062 24 345.832 24Z" fill="white"/>
<path d="M340.131 24V23.4199H340.453C340.699 23.4199 340.873 23.4023 340.975 23.3672C341.076 23.3281 341.137 23.2773 341.156 23.2148C341.176 23.1523 341.186 23.0859 341.186 23.0156V17.1094H339.914C339.621 17.1094 339.412 17.1211 339.287 17.1445C339.162 17.168 339.084 17.2031 339.053 17.25C339.025 17.2969 339.012 17.3574 339.012 17.4316C339.012 17.5488 339.012 17.6836 339.012 17.8359C339.016 17.9844 339.018 18.1348 339.018 18.2871C339.018 18.4395 339.018 18.5781 339.018 18.7031H338.402V16.4414C338.402 16.4414 338.498 16.4434 338.689 16.4473C338.881 16.4473 339.113 16.4492 339.387 16.4531C339.66 16.4531 339.924 16.4531 340.178 16.4531C340.432 16.4531 340.621 16.4531 340.746 16.4531H343.008C343.188 16.4531 343.4 16.4531 343.646 16.4531C343.893 16.4492 344.137 16.4473 344.379 16.4473C344.625 16.4434 344.836 16.4414 345.012 16.4414V18.7031H344.391V17.4961C344.391 17.3867 344.375 17.3047 344.344 17.25C344.316 17.1953 344.236 17.1582 344.104 17.1387C343.971 17.1191 343.748 17.1094 343.436 17.1094H342.252V23.0801C342.252 23.166 342.262 23.2344 342.281 23.2852C342.305 23.332 342.367 23.3672 342.469 23.3906C342.57 23.4102 342.74 23.4199 342.979 23.4199H343.307V24C343.08 24 342.854 24 342.627 24C342.404 23.9961 342.129 23.9922 341.801 23.9883C341.777 23.9883 341.697 23.9902 341.561 23.9941C341.428 23.9941 341.27 23.9941 341.086 23.9941C340.906 23.9941 340.729 23.9961 340.553 24C340.377 24 340.236 24 340.131 24Z" fill="white"/>
<path d="M333.668 24.1406C332.863 24.1406 332.168 23.9785 331.582 23.6543C330.996 23.3262 330.545 22.8691 330.229 22.2832C329.916 21.6934 329.76 21.0039 329.76 20.2148C329.76 19.4336 329.916 18.75 330.229 18.1641C330.545 17.5742 330.992 17.1152 331.57 16.7871C332.148 16.459 332.834 16.2949 333.627 16.2949C334.416 16.2949 335.1 16.459 335.678 16.7871C336.256 17.1152 336.703 17.5742 337.02 18.1641C337.336 18.75 337.494 19.4336 337.494 20.2148C337.494 20.9922 337.336 21.6758 337.02 22.2656C336.707 22.8516 336.264 23.3105 335.689 23.6426C335.119 23.9746 334.445 24.1406 333.668 24.1406ZM333.621 23.4609C334.461 23.4609 335.123 23.1699 335.607 22.5879C336.092 22.002 336.334 21.2109 336.334 20.2148C336.334 19.207 336.092 18.4121 335.607 17.8301C335.123 17.248 334.461 16.957 333.621 16.957C332.777 16.957 332.113 17.25 331.629 17.8359C331.148 18.4219 330.908 19.2129 330.908 20.209C330.908 21.209 331.15 22.002 331.635 22.5879C332.123 23.1699 332.785 23.4609 333.621 23.4609Z" fill="white"/>
<path d="M319.102 24V23.4199H319.465C319.699 23.4199 319.859 23.4043 319.945 23.373C320.035 23.3379 320.086 23.2832 320.098 23.209C320.109 23.1348 320.115 23.041 320.115 22.9277V17.4434C320.115 17.248 320.066 17.1289 319.969 17.0859C319.875 17.043 319.715 17.0215 319.488 17.0215H319.143V16.4414C319.299 16.4453 319.461 16.4492 319.629 16.4531C319.797 16.4531 319.961 16.4531 320.121 16.4531C320.285 16.4531 320.438 16.4531 320.578 16.4531C320.598 16.4531 320.658 16.4531 320.76 16.4531C320.861 16.4492 320.975 16.4473 321.1 16.4473C321.229 16.4473 321.344 16.4473 321.445 16.4473C321.551 16.4434 321.617 16.4414 321.645 16.4414C321.645 16.4414 321.686 16.5566 321.768 16.7871C321.854 17.0137 321.965 17.3145 322.102 17.6895C322.242 18.0645 322.395 18.4766 322.559 18.9258C322.723 19.375 322.887 19.8242 323.051 20.2734C323.215 20.7227 323.365 21.1348 323.502 21.5098C323.643 21.8848 323.754 22.1875 323.836 22.418C323.922 22.6445 323.965 22.7578 323.965 22.7578C323.973 22.7344 324.018 22.6074 324.1 22.377C324.186 22.1426 324.297 21.8418 324.434 21.4746C324.57 21.1035 324.719 20.6992 324.879 20.2617C325.043 19.8242 325.205 19.3867 325.365 18.9492C325.529 18.5078 325.68 18.1035 325.816 17.7363C325.953 17.3652 326.064 17.0625 326.15 16.8281C326.236 16.5938 326.283 16.4648 326.291 16.4414C326.318 16.4414 326.393 16.4434 326.514 16.4473C326.639 16.4473 326.777 16.4492 326.93 16.4531C327.086 16.4531 327.225 16.4551 327.346 16.459C327.467 16.459 327.539 16.459 327.562 16.459C327.695 16.459 327.836 16.459 327.984 16.459C328.133 16.4551 328.281 16.4531 328.43 16.4531C328.578 16.4492 328.711 16.4453 328.828 16.4414V17.0215H328.465C328.156 17.0215 327.975 17.0566 327.92 17.127C327.869 17.1934 327.844 17.293 327.844 17.4258C327.844 17.4258 327.844 17.5254 327.844 17.7246C327.844 17.9238 327.844 18.1875 327.844 18.5156C327.844 18.8398 327.844 19.1973 327.844 19.5879C327.844 19.9746 327.844 20.3633 327.844 20.7539C327.844 21.1406 327.844 21.4961 327.844 21.8203C327.844 22.1445 327.844 22.4062 327.844 22.6055C327.844 22.8008 327.844 22.8984 327.844 22.8984C327.844 23.1484 327.885 23.2988 327.967 23.3496C328.049 23.3965 328.223 23.4199 328.488 23.4199H328.846V24C328.572 24 328.309 23.998 328.055 23.9941C327.801 23.9902 327.488 23.9883 327.117 23.9883C326.832 23.9883 326.602 23.9902 326.426 23.9941C326.254 23.998 326.07 24 325.875 24V23.4199H326.227C326.539 23.4199 326.725 23.3711 326.783 23.2734C326.842 23.1719 326.871 23.0449 326.871 22.8926V16.9688C326.871 16.9688 326.844 17.0391 326.789 17.1797C326.738 17.3203 326.676 17.4824 326.602 17.666C326.531 17.8496 326.469 18.0117 326.414 18.1523C326.363 18.293 326.338 18.3633 326.338 18.3633L324.217 24H323.555C323.445 23.7109 323.332 23.4141 323.215 23.1094C323.098 22.8047 322.979 22.4941 322.857 22.1777C322.74 21.8574 322.621 21.5371 322.5 21.2168C322.383 20.8926 322.264 20.5723 322.143 20.2559C322.025 19.9355 321.908 19.6211 321.791 19.3125C321.678 19.0039 321.566 18.7051 321.457 18.416C321.41 18.2871 321.361 18.1602 321.311 18.0352C321.264 17.9102 321.217 17.7891 321.17 17.6719C321.127 17.5508 321.084 17.4336 321.041 17.3203C320.998 17.207 320.955 17.0977 320.912 16.9922V22.9395C320.912 23.166 320.947 23.3027 321.018 23.3496C321.088 23.3965 321.26 23.4199 321.533 23.4199H321.885V24C321.686 24 321.494 23.998 321.311 23.9941C321.131 23.9902 320.896 23.9883 320.607 23.9883C320.295 23.9883 320.023 23.9902 319.793 23.9941C319.566 23.998 319.336 24 319.102 24Z" fill="white"/>
<path d="M43.4512 392V391.42H43.7734C44.0195 391.42 44.1934 391.402 44.2949 391.367C44.3965 391.328 44.457 391.277 44.4766 391.215C44.4961 391.152 44.5059 391.086 44.5059 391.016V385.109H43.2344C42.9414 385.109 42.7324 385.121 42.6074 385.145C42.4824 385.168 42.4043 385.203 42.373 385.25C42.3457 385.297 42.332 385.357 42.332 385.432C42.332 385.549 42.332 385.684 42.332 385.836C42.3359 385.984 42.3379 386.135 42.3379 386.287C42.3379 386.439 42.3379 386.578 42.3379 386.703H41.7227V384.441C41.7227 384.441 41.8184 384.443 42.0098 384.447C42.2012 384.447 42.4336 384.449 42.707 384.453C42.9805 384.453 43.2441 384.453 43.498 384.453C43.752 384.453 43.9414 384.453 44.0664 384.453H46.3281C46.5078 384.453 46.7207 384.453 46.9668 384.453C47.2129 384.449 47.457 384.447 47.6992 384.447C47.9453 384.443 48.1562 384.441 48.332 384.441V386.703H47.7109V385.496C47.7109 385.387 47.6953 385.305 47.6641 385.25C47.6367 385.195 47.5566 385.158 47.4238 385.139C47.291 385.119 47.0684 385.109 46.7559 385.109H45.5723V391.08C45.5723 391.166 45.582 391.234 45.6016 391.285C45.625 391.332 45.6875 391.367 45.7891 391.391C45.8906 391.41 46.0605 391.42 46.2988 391.42H46.627V392C46.4004 392 46.1738 392 45.9473 392C45.7246 391.996 45.4492 391.992 45.1211 391.988C45.0977 391.988 45.0176 391.99 44.8809 391.994C44.748 391.994 44.5898 391.994 44.4062 391.994C44.2266 391.994 44.0488 391.996 43.873 392C43.6973 392 43.5566 392 43.4512 392Z" fill="white"/>
<path d="M35.3242 392V391.42H35.623C35.8691 391.42 36.043 391.396 36.1445 391.35C36.2461 391.299 36.3066 391.232 36.3262 391.15C36.3457 391.068 36.3555 390.977 36.3555 390.875V385.584C36.3555 385.553 36.3555 385.521 36.3555 385.49C36.3594 385.459 36.3613 385.428 36.3613 385.396C36.3613 385.279 36.3223 385.188 36.2441 385.121C36.166 385.055 35.959 385.021 35.623 385.021H35.3242V384.441C35.4141 384.445 35.5059 384.449 35.5996 384.453C35.6934 384.453 35.7891 384.455 35.8867 384.459C35.9883 384.459 36.0898 384.459 36.1914 384.459C36.5664 384.459 36.9395 384.459 37.3105 384.459C37.6855 384.459 38.0781 384.453 38.4883 384.441V385.021H38.0723C37.8613 385.021 37.7109 385.045 37.6211 385.092C37.5312 385.139 37.4766 385.199 37.457 385.273C37.4375 385.348 37.4277 385.43 37.4277 385.52V391.332H40.0938C40.2773 391.332 40.3848 391.164 40.416 390.828C40.4512 390.488 40.4688 390.02 40.4688 389.422H41.1426V392H35.3242Z" fill="white"/>
<path d="M31.5273 392V391.42H31.8086C32.0469 391.42 32.2148 391.402 32.3125 391.367C32.4141 391.332 32.4746 391.283 32.4941 391.221C32.5137 391.158 32.5234 391.088 32.5234 391.01V385.473C32.5234 385.355 32.5117 385.266 32.4883 385.203C32.4688 385.137 32.4082 385.09 32.3066 385.062C32.209 385.035 32.043 385.021 31.8086 385.021H31.5273V384.441C31.7109 384.445 31.8711 384.449 32.0078 384.453C32.1484 384.457 32.2852 384.459 32.418 384.459C32.8789 384.459 33.2461 384.459 33.5195 384.459C33.793 384.455 34.0098 384.451 34.1699 384.447C34.3301 384.443 34.4707 384.441 34.5918 384.441V385.021H34.3047C34.0703 385.021 33.9023 385.039 33.8008 385.074C33.7031 385.109 33.6426 385.158 33.6191 385.221C33.5996 385.279 33.5898 385.35 33.5898 385.432V391.051C33.5898 391.148 33.5996 391.225 33.6191 391.279C33.6387 391.33 33.6973 391.367 33.7949 391.391C33.8965 391.41 34.0664 391.42 34.3047 391.42H34.5918V392C34.3496 392 34.1172 391.998 33.8945 391.994C33.6758 391.99 33.3945 391.988 33.0508 391.988C32.7383 391.988 32.4629 391.99 32.2246 391.994C31.9902 391.998 31.7578 392 31.5273 392Z" fill="white"/>
<path d="M27.2207 392.141C26.4785 392.141 25.8945 392.029 25.4688 391.807C25.0469 391.584 24.748 391.25 24.5723 390.805C24.4004 390.355 24.3145 389.797 24.3145 389.129V385.355C24.3145 385.23 24.2852 385.145 24.2266 385.098C24.168 385.047 23.9727 385.021 23.6406 385.021H23.3477V384.441C23.5273 384.445 23.7148 384.449 23.9102 384.453C24.1094 384.453 24.3105 384.453 24.5137 384.453C24.7168 384.453 24.9121 384.453 25.0996 384.453C25.3066 384.453 25.5117 384.453 25.7148 384.453C25.9219 384.449 26.1387 384.445 26.3652 384.441V385.021H26.0898C25.8555 385.021 25.6875 385.039 25.5859 385.074C25.4883 385.105 25.4277 385.15 25.4043 385.209C25.3848 385.264 25.375 385.324 25.375 385.391V389.1C25.375 389.643 25.4316 390.088 25.5449 390.436C25.6582 390.779 25.8535 391.035 26.1309 391.203C26.4082 391.367 26.7949 391.449 27.291 391.449C27.8223 391.449 28.2227 391.359 28.4922 391.18C28.7617 391 28.9414 390.738 29.0312 390.395C29.125 390.051 29.1719 389.635 29.1719 389.146V385.42C29.1719 385.322 29.1621 385.244 29.1426 385.186C29.123 385.127 29.0605 385.086 28.9551 385.062C28.8496 385.035 28.6699 385.021 28.416 385.021H28.1348V384.441C28.2285 384.445 28.3262 384.449 28.4277 384.453C28.5332 384.453 28.6426 384.453 28.7559 384.453C28.8691 384.453 28.9805 384.453 29.0898 384.453C29.2461 384.453 29.3926 384.453 29.5293 384.453C29.6699 384.449 29.8496 384.447 30.0684 384.447C30.291 384.443 30.5957 384.441 30.9824 384.441V385.021H30.6836C30.4609 385.021 30.3047 385.041 30.2148 385.08C30.125 385.115 30.0703 385.16 30.0508 385.215C30.0352 385.27 30.0273 385.328 30.0273 385.391V389.111C30.0273 390.135 29.8164 390.896 29.3945 391.396C28.9727 391.893 28.248 392.141 27.2207 392.141Z" fill="white"/>
<path d="M16.3398 392V391.42H16.709C16.9238 391.42 17.0742 391.402 17.1602 391.367C17.25 391.328 17.3027 391.275 17.3184 391.209C17.3379 391.143 17.3477 391.068 17.3477 390.986V385.414C17.3477 385.324 17.3359 385.254 17.3125 385.203C17.2891 385.148 17.2324 385.107 17.1426 385.08C17.0566 385.053 16.918 385.035 16.7266 385.027C16.6719 385.023 16.6133 385.021 16.5508 385.021C16.4883 385.021 16.418 385.021 16.3398 385.021V384.441H19.3867C20.1328 384.441 20.7227 384.516 21.1562 384.664C21.5898 384.809 21.8984 385.023 22.082 385.309C22.2695 385.59 22.3633 385.936 22.3633 386.346C22.3633 386.764 22.25 387.115 22.0234 387.4C21.8008 387.682 21.4648 387.893 21.0156 388.033C21.5703 388.154 21.9883 388.375 22.2695 388.695C22.5547 389.012 22.6973 389.42 22.6973 389.92C22.6973 390.299 22.6094 390.646 22.4336 390.963C22.2617 391.279 21.9668 391.531 21.5488 391.719C21.1309 391.906 20.5586 392 19.832 392H16.3398ZM18.4141 391.361H19.6562C20.3242 391.361 20.8164 391.232 21.1328 390.975C21.4492 390.717 21.6074 390.363 21.6074 389.914C21.6074 389.375 21.4219 388.984 21.0508 388.742C20.6836 388.496 20.0801 388.373 19.2402 388.373H18.4141V391.361ZM18.4141 387.793H19.5977C20.1562 387.793 20.582 387.668 20.875 387.418C21.168 387.168 21.3145 386.832 21.3145 386.41C21.3145 386.035 21.1816 385.719 20.916 385.461C20.6504 385.203 20.1875 385.074 19.5273 385.074H18.4141V387.793Z" fill="white"/>
<path d="M82.5215 378.141C82.1426 378.141 81.8477 378.039 81.6367 377.836C81.4297 377.633 81.2617 377.352 81.1328 376.992C81.0078 376.633 80.8789 376.217 80.7461 375.744C80.6758 375.49 80.582 375.264 80.4648 375.064C80.3477 374.861 80.2344 374.682 80.125 374.525C80.0078 374.482 79.8691 374.451 79.709 374.432C79.5527 374.412 79.377 374.402 79.1816 374.402H78.4082V377.115C78.4082 377.268 78.459 377.357 78.5605 377.385C78.666 377.408 78.8613 377.42 79.1465 377.42H79.4512V378C79.2168 378 78.9863 378 78.7598 378C78.5332 377.996 78.2578 377.992 77.9336 377.988C77.5898 377.988 77.2891 377.99 77.0312 377.994C76.7773 377.998 76.5234 378 76.2695 378V377.42H76.5625C76.8242 377.42 77.0078 377.406 77.1133 377.379C77.2227 377.352 77.2871 377.311 77.3066 377.256C77.3301 377.197 77.3418 377.127 77.3418 377.045V371.396C77.3418 371.287 77.3281 371.207 77.3008 371.156C77.2773 371.102 77.2109 371.066 77.1016 371.051C76.9961 371.031 76.8203 371.021 76.5742 371.021C76.5273 371.021 76.4785 371.021 76.4277 371.021C76.377 371.021 76.3242 371.021 76.2695 371.021V370.441H79.498C79.9277 370.441 80.3242 370.469 80.6875 370.523C81.0547 370.578 81.375 370.676 81.6484 370.816C81.9219 370.953 82.1348 371.15 82.2871 371.408C82.4395 371.662 82.5156 371.988 82.5156 372.387C82.5156 372.852 82.3711 373.242 82.082 373.559C81.793 373.871 81.3848 374.084 80.8574 374.197C81.0879 374.373 81.293 374.586 81.4727 374.836C81.6523 375.082 81.7988 375.455 81.9121 375.955C82.0332 376.471 82.1426 376.848 82.2402 377.086C82.3418 377.32 82.5 377.438 82.7148 377.438C82.832 377.438 82.9434 377.404 83.0488 377.338C83.1543 377.268 83.207 377.113 83.207 376.875L83.7988 376.822C83.7988 377.225 83.6875 377.545 83.4648 377.783C83.2422 378.021 82.9277 378.141 82.5215 378.141ZM78.4082 373.834H79.6855C80.3184 373.834 80.7715 373.729 81.0449 373.518C81.3184 373.307 81.4551 372.951 81.4551 372.451C81.4551 372.068 81.3711 371.779 81.2031 371.584C81.0391 371.385 80.7988 371.25 80.4824 371.18C80.166 371.109 79.7773 371.074 79.3164 371.074H78.4082V373.834Z" fill="white"/>
<path d="M69.127 378V377.42H69.8008C69.9844 377.42 70.0918 377.369 70.123 377.268C70.1582 377.166 70.1758 377.057 70.1758 376.939V371.578C70.1758 371.395 70.1621 371.256 70.1348 371.162C70.1113 371.068 70 371.021 69.8008 371.021H69.1738V370.453H75.4434V372.363H74.7812V372.082C74.7812 371.758 74.7656 371.529 74.7344 371.396C74.7031 371.264 74.6562 371.184 74.5938 371.156C74.5312 371.129 74.4531 371.115 74.3594 371.115H71.248V373.822H73.2695C73.3203 373.822 73.3613 373.814 73.3926 373.799C73.4277 373.783 73.4551 373.732 73.4746 373.646C73.498 373.557 73.5156 373.404 73.5273 373.189H73.9961V375.076H73.5273C73.5039 374.756 73.4707 374.568 73.4277 374.514C73.3848 374.455 73.3203 374.426 73.2344 374.426H71.248V377.344H74.4121C74.5723 377.344 74.6758 377.277 74.7227 377.145C74.7734 377.008 74.8008 376.73 74.8047 376.312C74.8047 376.258 74.8047 376.201 74.8047 376.143C74.8047 376.084 74.8047 376.023 74.8047 375.961H75.4609V378H69.127Z" fill="white"/>
<path d="M63.5488 378V377.42H63.8711C64.1172 377.42 64.291 377.402 64.3926 377.367C64.4941 377.328 64.5547 377.277 64.5742 377.215C64.5938 377.152 64.6035 377.086 64.6035 377.016V371.109H63.332C63.0391 371.109 62.8301 371.121 62.7051 371.145C62.5801 371.168 62.502 371.203 62.4707 371.25C62.4434 371.297 62.4297 371.357 62.4297 371.432C62.4297 371.549 62.4297 371.684 62.4297 371.836C62.4336 371.984 62.4355 372.135 62.4355 372.287C62.4355 372.439 62.4355 372.578 62.4355 372.703H61.8203V370.441C61.8203 370.441 61.916 370.443 62.1074 370.447C62.2988 370.447 62.5312 370.449 62.8047 370.453C63.0781 370.453 63.3418 370.453 63.5957 370.453C63.8496 370.453 64.0391 370.453 64.1641 370.453H66.4258C66.6055 370.453 66.8184 370.453 67.0645 370.453C67.3105 370.449 67.5547 370.447 67.7969 370.447C68.043 370.443 68.2539 370.441 68.4297 370.441V372.703H67.8086V371.496C67.8086 371.387 67.793 371.305 67.7617 371.25C67.7344 371.195 67.6543 371.158 67.5215 371.139C67.3887 371.119 67.166 371.109 66.8535 371.109H65.6699V377.08C65.6699 377.166 65.6797 377.234 65.6992 377.285C65.7227 377.332 65.7852 377.367 65.8867 377.391C65.9883 377.41 66.1582 377.42 66.3965 377.42H66.7246V378C66.498 378 66.2715 378 66.0449 378C65.8223 377.996 65.5469 377.992 65.2188 377.988C65.1953 377.988 65.1152 377.99 64.9785 377.994C64.8457 377.994 64.6875 377.994 64.5039 377.994C64.3242 377.994 64.1465 377.996 63.9707 378C63.7949 378 63.6543 378 63.5488 378Z" fill="white"/>
<path d="M55.1875 378V377.42H55.873C56.0488 377.42 56.1543 377.381 56.1895 377.303C56.2246 377.225 56.2422 377.107 56.2422 376.951V371.549C56.2422 371.35 56.2285 371.213 56.2012 371.139C56.1738 371.061 56.0645 371.021 55.873 371.021H55.2227V370.441H61.3281V372.375H60.6777V372.135C60.6777 371.791 60.6621 371.549 60.6309 371.408C60.6035 371.268 60.5547 371.184 60.4844 371.156C60.418 371.125 60.3262 371.109 60.209 371.109H57.3145V373.816H58.9961C59.0938 373.816 59.1758 373.816 59.2422 373.816C59.3086 373.812 59.3613 373.777 59.4004 373.711C59.4395 373.645 59.4609 373.516 59.4648 373.324H59.8809V374.912H59.4648C59.4609 374.67 59.4199 374.527 59.3418 374.484C59.2676 374.441 59.1562 374.42 59.0078 374.42H57.3145V377.027C57.3145 377.223 57.3711 377.338 57.4844 377.373C57.5977 377.404 57.7949 377.42 58.0762 377.42H58.3926V378C58.1504 378 57.9121 378 57.6777 378C57.4473 377.996 57.1621 377.992 56.8223 377.988C56.4668 377.988 56.1699 377.99 55.9316 377.994C55.6973 377.998 55.4492 378 55.1875 378Z" fill="white"/>
<path d="M46.7441 378V377.42C47.0059 377.416 47.1953 377.408 47.3125 377.396C47.4336 377.385 47.5176 377.35 47.5645 377.291C47.6152 377.232 47.666 377.135 47.7168 376.998C47.7246 376.982 47.7695 376.867 47.8516 376.652C47.9336 376.434 48.041 376.152 48.1738 375.809C48.3066 375.461 48.4512 375.082 48.6074 374.672C48.7637 374.262 48.9199 373.854 49.0762 373.447C49.2363 373.037 49.3809 372.66 49.5098 372.316C49.6426 371.969 49.75 371.688 49.832 371.473C49.918 371.254 49.9629 371.137 49.9668 371.121L50.2012 370.441H51.5547C51.5547 370.441 51.5957 370.553 51.6777 370.775C51.7637 370.998 51.875 371.293 52.0117 371.66C52.1523 372.023 52.3066 372.426 52.4746 372.867C52.6426 373.305 52.8105 373.744 52.9785 374.186C53.1504 374.627 53.3066 375.035 53.4473 375.41C53.5879 375.781 53.7031 376.084 53.793 376.318C53.8828 376.549 53.9297 376.67 53.9336 376.682C54.0039 376.865 54.0625 377.008 54.1094 377.109C54.1562 377.211 54.2109 377.285 54.2734 377.332C54.3359 377.375 54.4258 377.402 54.543 377.414C54.6602 377.422 54.8242 377.426 55.0352 377.426V378C54.8203 378 54.6035 377.998 54.3848 377.994C54.1699 377.99 53.9473 377.988 53.7168 377.988C53.4668 377.988 53.2246 377.988 52.9902 377.988C52.7559 377.988 52.4648 377.992 52.1172 378V377.438C52.207 377.438 52.2871 377.438 52.3574 377.438C52.4277 377.438 52.4922 377.436 52.5508 377.432C52.7266 377.428 52.8438 377.416 52.9023 377.396C52.9648 377.373 52.9961 377.334 52.9961 377.279C52.9961 377.26 52.9922 377.234 52.9844 377.203C52.9766 377.168 52.9668 377.131 52.9551 377.092L52.334 375.229H49.2695C49.2656 375.236 49.2422 375.303 49.1992 375.428C49.1562 375.553 49.1035 375.705 49.041 375.885C48.9785 376.064 48.9141 376.246 48.8477 376.43C48.7852 376.609 48.7324 376.762 48.6895 376.887C48.6465 377.008 48.625 377.07 48.625 377.074C48.5859 377.172 48.5664 377.242 48.5664 377.285C48.5664 377.359 48.6055 377.404 48.6836 377.42C48.7656 377.436 48.9004 377.443 49.0879 377.443C49.1465 377.443 49.2109 377.443 49.2812 377.443C49.3516 377.443 49.4277 377.443 49.5098 377.443V378C49.2949 378 49.0762 377.998 48.8535 377.994C48.6348 377.99 48.416 377.988 48.1973 377.988C47.959 377.988 47.7363 377.988 47.5293 377.988C47.3223 377.988 47.0605 377.992 46.7441 378ZM49.4922 374.637H52.1172L50.8047 370.992L49.4922 374.637Z" fill="white"/>
<path d="M39.9355 378V377.42H40.6094C40.793 377.42 40.9004 377.369 40.9316 377.268C40.9668 377.166 40.9844 377.057 40.9844 376.939V371.578C40.9844 371.395 40.9707 371.256 40.9434 371.162C40.9199 371.068 40.8086 371.021 40.6094 371.021H39.9824V370.453H46.252V372.363H45.5898V372.082C45.5898 371.758 45.5742 371.529 45.543 371.396C45.5117 371.264 45.4648 371.184 45.4023 371.156C45.3398 371.129 45.2617 371.115 45.168 371.115H42.0566V373.822H44.0781C44.1289 373.822 44.1699 373.814 44.2012 373.799C44.2363 373.783 44.2637 373.732 44.2832 373.646C44.3066 373.557 44.3242 373.404 44.3359 373.189H44.8047V375.076H44.3359C44.3125 374.756 44.2793 374.568 44.2363 374.514C44.1934 374.455 44.1289 374.426 44.043 374.426H42.0566V377.344H45.2207C45.3809 377.344 45.4844 377.277 45.5312 377.145C45.582 377.008 45.6094 376.73 45.6133 376.312C45.6133 376.258 45.6133 376.201 45.6133 376.143C45.6133 376.084 45.6133 376.023 45.6133 375.961H46.2695V378H39.9355Z" fill="white"/>
<path d="M38.4004 378.141C38.0215 378.141 37.7266 378.039 37.5156 377.836C37.3086 377.633 37.1406 377.352 37.0117 376.992C36.8867 376.633 36.7578 376.217 36.625 375.744C36.5547 375.49 36.4609 375.264 36.3438 375.064C36.2266 374.861 36.1133 374.682 36.0039 374.525C35.8867 374.482 35.748 374.451 35.5879 374.432C35.4316 374.412 35.2559 374.402 35.0605 374.402H34.2871V377.115C34.2871 377.268 34.3379 377.357 34.4395 377.385C34.5449 377.408 34.7402 377.42 35.0254 377.42H35.3301V378C35.0957 378 34.8652 378 34.6387 378C34.4121 377.996 34.1367 377.992 33.8125 377.988C33.4688 377.988 33.168 377.99 32.9102 377.994C32.6562 377.998 32.4023 378 32.1484 378V377.42H32.4414C32.7031 377.42 32.8867 377.406 32.9922 377.379C33.1016 377.352 33.166 377.311 33.1855 377.256C33.209 377.197 33.2207 377.127 33.2207 377.045V371.396C33.2207 371.287 33.207 371.207 33.1797 371.156C33.1562 371.102 33.0898 371.066 32.9805 371.051C32.875 371.031 32.6992 371.021 32.4531 371.021C32.4062 371.021 32.3574 371.021 32.3066 371.021C32.2559 371.021 32.2031 371.021 32.1484 371.021V370.441H35.377C35.8066 370.441 36.2031 370.469 36.5664 370.523C36.9336 370.578 37.2539 370.676 37.5273 370.816C37.8008 370.953 38.0137 371.15 38.166 371.408C38.3184 371.662 38.3945 371.988 38.3945 372.387C38.3945 372.852 38.25 373.242 37.9609 373.559C37.6719 373.871 37.2637 374.084 36.7363 374.197C36.9668 374.373 37.1719 374.586 37.3516 374.836C37.5312 375.082 37.6777 375.455 37.791 375.955C37.9121 376.471 38.0215 376.848 38.1191 377.086C38.2207 377.32 38.3789 377.438 38.5938 377.438C38.7109 377.438 38.8223 377.404 38.9277 377.338C39.0332 377.268 39.0859 377.113 39.0859 376.875L39.6777 376.822C39.6777 377.225 39.5664 377.545 39.3438 377.783C39.1211 378.021 38.8066 378.141 38.4004 378.141ZM34.2871 373.834H35.5645C36.1973 373.834 36.6504 373.729 36.9238 373.518C37.1973 373.307 37.334 372.951 37.334 372.451C37.334 372.068 37.25 371.779 37.082 371.584C36.918 371.385 36.6777 371.25 36.3613 371.18C36.0449 371.109 35.6562 371.074 35.1953 371.074H34.2871V373.834Z" fill="white"/>
<path d="M25.0059 378V377.42H25.6797C25.8633 377.42 25.9707 377.369 26.002 377.268C26.0371 377.166 26.0547 377.057 26.0547 376.939V371.578C26.0547 371.395 26.041 371.256 26.0137 371.162C25.9902 371.068 25.8789 371.021 25.6797 371.021H25.0527V370.453H31.3223V372.363H30.6602V372.082C30.6602 371.758 30.6445 371.529 30.6133 371.396C30.582 371.264 30.5352 371.184 30.4727 371.156C30.4102 371.129 30.332 371.115 30.2383 371.115H27.127V373.822H29.1484C29.1992 373.822 29.2402 373.814 29.2715 373.799C29.3066 373.783 29.334 373.732 29.3535 373.646C29.377 373.557 29.3945 373.404 29.4062 373.189H29.875V375.076H29.4062C29.3828 374.756 29.3496 374.568 29.3066 374.514C29.2637 374.455 29.1992 374.426 29.1133 374.426H27.127V377.344H30.291C30.4512 377.344 30.5547 377.277 30.6016 377.145C30.6523 377.008 30.6797 376.73 30.6836 376.312C30.6836 376.258 30.6836 376.201 30.6836 376.143C30.6836 376.084 30.6836 376.023 30.6836 375.961H31.3398V378H25.0059Z" fill="white"/>
<path d="M16.3516 378V377.42H16.627C16.8652 377.42 17.0332 377.4 17.1309 377.361C17.2285 377.322 17.2871 377.268 17.3066 377.197C17.3262 377.127 17.3359 377.049 17.3359 376.963V371.385C17.3359 371.295 17.3242 371.225 17.3008 371.174C17.2812 371.119 17.2227 371.08 17.125 371.057C17.0273 371.033 16.8613 371.021 16.627 371.021H16.3516V370.441C16.6055 370.441 16.8906 370.443 17.207 370.447C17.5234 370.451 17.8223 370.453 18.1035 370.453C18.127 370.453 18.2207 370.453 18.3848 370.453C18.5527 370.449 18.7344 370.447 18.9297 370.447C19.1289 370.443 19.2852 370.441 19.3984 370.441V371.021H19.1172C18.8789 371.021 18.709 371.035 18.6074 371.062C18.5098 371.09 18.4512 371.135 18.4316 371.197C18.4121 371.256 18.4023 371.34 18.4023 371.449V373.752H22.3223V371.402C22.3223 371.211 22.2715 371.1 22.1699 371.068C22.0723 371.037 21.8828 371.021 21.6016 371.021H21.3203V370.441C21.6055 370.445 21.8867 370.449 22.1641 370.453C22.4414 370.453 22.7051 370.453 22.9551 370.453C22.9746 370.453 23.0742 370.453 23.2539 370.453C23.4375 370.449 23.6387 370.447 23.8574 370.447C24.0762 370.443 24.248 370.441 24.373 370.441V371.021H24.0977C23.8633 371.021 23.6973 371.035 23.5996 371.062C23.502 371.086 23.4414 371.125 23.418 371.18C23.3984 371.234 23.3887 371.309 23.3887 371.402V376.928C23.3887 377.037 23.3906 377.129 23.3945 377.203C23.4023 377.273 23.4531 377.328 23.5469 377.367C23.6445 377.402 23.8281 377.42 24.0977 377.42H24.373V378C24.1113 378 23.8555 377.998 23.6055 377.994C23.3594 377.99 23.0625 377.988 22.7148 377.988C22.418 377.988 22.1641 377.99 21.9531 377.994C21.7422 377.998 21.5312 378 21.3203 378V377.42H21.6016C21.8398 377.42 22.0078 377.402 22.1055 377.367C22.207 377.328 22.2676 377.273 22.2871 377.203C22.3105 377.133 22.3223 377.049 22.3223 376.951V374.379H18.4023V376.986C18.4023 377.213 18.4492 377.342 18.543 377.373C18.6367 377.404 18.8281 377.42 19.1172 377.42H19.3984V378C19.1836 378 18.9746 377.998 18.7715 377.994C18.5684 377.99 18.3125 377.988 18.0039 377.988C17.6523 377.988 17.3535 377.99 17.1074 377.994C16.8613 377.998 16.6094 378 16.3516 378Z" fill="white"/>
<path d="M87.1458 103C104.577 103.741 126.505 104.111 152.929 104.111L206.752 249.667H207.447L263.495 104.111H279.489C290.986 104.111 307.211 103.741 328.166 103C328.536 104.481 328.722 105.5 328.722 106.056C328.722 106.704 328.536 107.861 328.166 109.528C324.828 109.806 322.139 110.083 320.099 110.361C318.059 110.639 315.324 111.102 311.894 111.75C308.556 112.398 305.867 113.185 303.827 114.111C301.787 114.944 299.979 116.148 298.403 117.722C296.827 119.204 295.992 120.917 295.9 122.861C294.973 144.62 294.509 170.5 294.509 200.5C294.509 230.963 295.112 260.176 296.317 288.139C296.41 290.546 297.476 292.63 299.516 294.389C301.556 296.056 304.476 297.352 308.278 298.278C312.172 299.204 315.417 299.898 318.013 300.361C320.702 300.731 324.179 301.102 328.444 301.472C328.815 302.954 329 304.204 329 305.222C329 305.963 328.815 306.889 328.444 308C312.774 307.444 296.642 307.167 280.045 307.167C263.356 307.167 247.223 307.444 231.646 308C231.276 306.889 231.09 305.963 231.09 305.222C231.09 303.648 231.276 302.398 231.646 301.472C235.911 301.102 239.342 300.731 241.938 300.361C244.627 299.898 247.872 299.204 251.673 298.278C255.568 297.352 258.535 296.056 260.574 294.389C262.614 292.63 263.68 290.546 263.773 288.139C264.7 259.25 265.164 233.463 265.164 210.778C265.164 189.019 264.7 164.25 263.773 136.472H262.66L199.102 303.694H197.712L129.981 133.139H128.452C127.71 155.639 127.339 181.519 127.339 210.778C127.339 232.259 127.803 257.352 128.73 286.056C128.915 294.481 139.16 299.62 159.466 301.472C159.929 303.046 160.161 304.296 160.161 305.222C160.161 306.148 159.929 307.074 159.466 308C144.724 307.444 131.558 307.167 119.968 307.167C112.55 307.167 100.126 307.444 82.6954 308C82.2318 307.074 82 306.148 82 305.222C82 303.648 82.2318 302.398 82.6954 301.472C103.186 299.528 113.431 294.389 113.431 286.056C114.544 257.167 115.1 228.648 115.1 200.5C115.1 180.222 114.822 158.694 114.266 135.917C114.173 132.028 113.941 128.787 113.57 126.194C113.2 123.509 112.504 121.194 111.484 119.25C110.464 117.306 109.398 115.778 108.285 114.667C107.173 113.556 105.458 112.583 103.14 111.75C100.822 110.824 98.5501 110.176 96.3249 109.806C94.1924 109.343 91.1327 108.833 87.1458 108.278C86.775 107.537 86.5895 106.704 86.5895 105.778C86.5895 104.667 86.775 103.741 87.1458 103Z" fill="white"/>
</svg>
