<svg width="410" height="410" viewBox="0 0 410 410" fill="none" xmlns="http://www.w3.org/2000/svg">
<path d="M0 15C0 6.71574 6.71573 0 15 0H395C403.284 0 410 6.71573 410 15V395C410 403.284 403.284 410 395 410H15C6.71574 410 0 403.284 0 395V15Z" fill="black"/>
<path d="M86.1458 102C103.577 102.741 125.505 103.111 151.929 103.111L205.752 248.667H206.447L262.495 103.111H278.489C289.986 103.111 306.211 102.741 327.166 102C327.536 103.481 327.722 104.5 327.722 105.056C327.722 105.704 327.536 106.861 327.166 108.528C323.828 108.806 321.139 109.083 319.099 109.361C317.059 109.639 314.324 110.102 310.894 110.75C307.556 111.398 304.867 112.185 302.827 113.111C300.787 113.944 298.979 115.148 297.403 116.722C295.827 118.204 294.992 119.917 294.9 121.861C293.973 143.62 293.509 169.5 293.509 199.5C293.509 229.963 294.112 259.176 295.317 287.139C295.41 289.546 296.476 291.63 298.516 293.389C300.556 295.056 303.476 296.352 307.278 297.278C311.172 298.204 314.417 298.898 317.013 299.361C319.702 299.731 323.179 300.102 327.444 300.472C327.815 301.954 328 303.204 328 304.222C328 304.963 327.815 305.889 327.444 307C311.774 306.444 295.642 306.167 279.045 306.167C262.356 306.167 246.223 306.444 230.646 307C230.276 305.889 230.09 304.963 230.09 304.222C230.09 302.648 230.276 301.398 230.646 300.472C234.911 300.102 238.342 299.731 240.938 299.361C243.627 298.898 246.872 298.204 250.673 297.278C254.568 296.352 257.535 295.056 259.574 293.389C261.614 291.63 262.68 289.546 262.773 287.139C263.7 258.25 264.164 232.463 264.164 209.778C264.164 188.019 263.7 163.25 262.773 135.472H261.66L198.102 302.694H196.712L128.981 132.139H127.452C126.71 154.639 126.339 180.519 126.339 209.778C126.339 231.259 126.803 256.352 127.73 285.056C127.915 293.481 138.16 298.62 158.466 300.472C158.929 302.046 159.161 303.296 159.161 304.222C159.161 305.148 158.929 306.074 158.466 307C143.724 306.444 130.558 306.167 118.968 306.167C111.55 306.167 99.1263 306.444 81.6954 307C81.2318 306.074 81 305.148 81 304.222C81 302.648 81.2318 301.398 81.6954 300.472C102.186 298.528 112.431 293.389 112.431 285.056C113.544 256.167 114.1 227.648 114.1 199.5C114.1 179.222 113.822 157.694 113.266 134.917C113.173 131.028 112.941 127.787 112.57 125.194C112.2 122.509 111.504 120.194 110.484 118.25C109.464 116.306 108.398 114.778 107.285 113.667C106.173 112.556 104.458 111.583 102.14 110.75C99.8217 109.824 97.5501 109.176 95.3249 108.806C93.1924 108.343 90.1327 107.833 86.1458 107.278C85.775 106.537 85.5895 105.704 85.5895 104.778C85.5895 103.667 85.775 102.741 86.1458 102Z" fill="white"/>
</svg>
